<?xml version="1.0" encoding="utf-8"?>
<!-- Generator: Adobe Illustrator 18.1.0, SVG Export Plug-In . SVG Version: 6.00 Build 0)  -->
<!DOCTYPE svg PUBLIC "-//W3C//DTD SVG 1.1//EN" "http://www.w3.org/Graphics/SVG/1.1/DTD/svg11.dtd">
<svg version="1.1" id="Ebene_1" xmlns="http://www.w3.org/2000/svg" xmlns:xlink="http://www.w3.org/1999/xlink" x="0px" y="0px"
	 viewBox="0 0 174.8 79.6" enable-background="new 0 0 174.8 79.6" xml:space="preserve">
<g>
	<g>
		<polygon points="35.1,61.9 35.1,61.9 30.9,50.2 12.9,0.7 12.9,0.6 12.7,0 0,0 29.2,79.6 30.7,79.6 36.2,65.1 		"/>
		<path d="M72.6,54.5L93.3,0h-2.9c0,0.9-1.3,5-2.5,8.2L71.6,51.6L72.6,54.5z"/>
		<polygon points="58.2,14.7 63.9,0 61.4,0 57.1,11.6 		"/>
		<polygon points="44.6,0 33.1,0 48.1,41.4 48.3,41.4 53.2,55.4 62,79.6 63.1,79.6 68.4,65.7 		"/>
	</g>
	<g>
		<g>
			<path d="M98.9,50.4h1.6c1.6,0,2.1,0.1,2.5,0.3c0.8,0.4,1.3,1.1,1.3,2c0,1-0.6,1.8-1.9,2.1c0.6,0.1,1.1,0.3,1.4,0.5
				c0.6,0.4,0.9,1.2,0.9,1.9c0,1-0.6,2-1.5,2.3c-0.5,0.2-0.9,0.3-2.3,0.3h-2.1V50.4z M101.4,54.6c0.7,0,1.1-0.1,1.5-0.4
				c0.3-0.3,0.6-0.7,0.6-1.4c0-0.7-0.4-1.3-0.9-1.5c-0.3-0.2-0.7-0.2-1.3-0.2h-1.6v3.5H101.4z M101.5,59.3c0.8,0,1.2-0.1,1.5-0.3
				c0.7-0.3,0.9-1,0.9-1.7c0-0.8-0.4-1.5-1.1-1.7c-0.3-0.2-0.8-0.3-1.5-0.3h-1.8v4H101.5z"/>
			<path d="M108.5,58.9c-0.3-0.5-0.4-1.2-0.4-1.7v-6.8h0.8V57c0,0.5,0.1,1.2,0.3,1.6c0.2,0.4,0.8,0.9,1.9,0.9c0.9,0,1.5-0.3,1.8-0.7
				c0.3-0.4,0.4-1,0.4-1.6v-6.7h0.8v6.8c0,1-0.1,1.6-0.7,2.1s-1.2,0.8-2.4,0.8C109.7,60.1,108.9,59.7,108.5,58.9z"/>
			<path d="M117.9,50.4h2c1.3,0,1.9,0.2,2.4,0.6c0.4,0.3,0.9,1,0.9,2c0,1.6-1,2.5-2.6,2.5h-0.1c0.5,0.3,0.7,0.6,1.2,1.3
				c0.7,1.1,2,3.1,2,3.1h-1c-0.2-0.4-1.3-2.4-2.2-3.5c-0.4-0.5-0.7-0.8-1.3-0.8c0,0-0.4,0-0.4,0V60h-0.8V50.4z M119.9,55.1
				c0.9,0,1.4-0.2,1.8-0.5c0.4-0.3,0.6-0.8,0.6-1.6c0-0.7-0.4-1.4-0.9-1.6c-0.3-0.2-0.8-0.3-1.5-0.3h-1.2v4H119.9z"/>
			<path d="M126.7,50.4h5l-0.1,0.7h-4.1v3.6h3.3v0.7h-3.3v3.9h4.3V60h-5.1V50.4z"/>
			<path d="M136.9,50.4h1l3.2,9.5h-0.9l-1-3.1h-3.7l-1,3.1h-0.8L136.9,50.4z M139,56.2l-1.6-5.1l-1.7,5.1H139z"/>
			<path d="M144.1,58.9c-0.3-0.5-0.4-1.2-0.4-1.7v-6.8h0.8V57c0,0.5,0.1,1.2,0.3,1.6c0.2,0.4,0.8,0.9,1.9,0.9c0.9,0,1.5-0.3,1.8-0.7
				c0.3-0.4,0.4-1,0.4-1.6v-6.7h0.8v6.8c0,1-0.1,1.6-0.7,2.1s-1.2,0.8-2.4,0.8C145.3,60.1,144.5,59.7,144.1,58.9z"/>
		</g>
		<g>
			<path d="M97.9,65.8h0.8l1.5,6.5c0.2,0.9,0.4,2.2,0.4,2.3c0-0.1,0.2-1.3,0.5-2.2l1.5-6.6h0.9l1.5,6.7c0.2,1.1,0.4,2.1,0.4,2.1
				c0,0,0.2-1.3,0.5-2.4l1.4-6.4h0.8l-2.2,9.5h-1l-1.4-6.3c-0.2-1.1-0.4-2-0.4-2.1c0,0.1-0.2,1.1-0.4,2.1l-1.5,6.4h-1L97.9,65.8z"/>
			<path d="M111.1,65.8h5l-0.1,0.7h-4.1V70h3.3v0.7h-3.3v3.9h4.3v0.7h-5.1V65.8z"/>
			<path d="M119.3,65.8h0.8v4.1h4.4v-4.1h0.8v9.5h-0.8v-4.7h-4.4v4.7h-0.8V65.8z"/>
			<path d="M129.2,65.8h2c1.3,0,1.9,0.2,2.4,0.6c0.4,0.3,0.9,1,0.9,2c0,1.6-1,2.5-2.6,2.5h-0.1c0.5,0.3,0.7,0.6,1.2,1.3
				c0.7,1.1,2,3.1,2,3.1h-1c-0.2-0.4-1.3-2.4-2.2-3.5c-0.4-0.5-0.7-0.8-1.3-0.8c0,0-0.4,0-0.4,0v4.4h-0.8V65.8z M131.1,70.5
				c0.9,0,1.4-0.2,1.8-0.5c0.4-0.3,0.6-0.8,0.6-1.6c0-0.7-0.4-1.4-0.9-1.6c-0.3-0.2-0.8-0.3-1.5-0.3H130v4H131.1z"/>
			<path d="M138.4,65.8h1.2l2.1,7.1c0.2,0.7,0.3,1.2,0.3,1.2c0-0.1,0.1-0.6,0.3-1.2l2.1-7.2h1.2l0.8,9.5h-0.8l-0.7-7.6
				c0-0.5-0.1-1.2-0.1-1.3c0,0.1-0.2,0.7-0.3,1.2l-2.2,7.6h-0.7l-2.2-7.4c-0.2-0.7-0.4-1.3-0.4-1.4c0,0-0.1,0.9-0.1,1.4l-0.6,7.4
				h-0.8L138.4,65.8z"/>
			<path d="M151.9,65.8h1l3.2,9.5h-0.9l-1-3.1h-3.7l-1,3.1h-0.8L151.9,65.8z M154,71.6l-1.6-5.1l-1.7,5.1H154z"/>
			<path d="M158.8,65.8h0.9l3.6,6.8c0.4,0.7,0.8,1.6,0.8,1.7c0,0-0.1-1.3-0.1-2.3l0-6.2h0.8v9.5H164l-3.6-6.7
				c-0.5-0.9-0.9-1.8-0.9-1.8s0.1,1.1,0.1,2.1l0,6.5h-0.8V65.8z"/>
			<path d="M168.8,65.8h0.9l3.6,6.8c0.4,0.7,0.8,1.6,0.8,1.7c0,0-0.1-1.3-0.1-2.3l0-6.2h0.8v9.5H174l-3.6-6.7
				c-0.5-0.9-0.9-1.8-0.9-1.8s0.1,1.1,0.1,2.1l0,6.5h-0.8V65.8z"/>
		</g>
	</g>
</g>
</svg>
